<?xml version="1.0" encoding="utf-8"?>
<!-- Generator: Adobe Illustrator 18.1.1, SVG Export Plug-In . SVG Version: 6.00 Build 0)  -->
<svg version="1.1" id="Layer_1" xmlns="http://www.w3.org/2000/svg" xmlns:xlink="http://www.w3.org/1999/xlink" x="0px" y="0px"
	 viewBox="0 0 373.8 98.7" enable-background="new 0 0 373.8 98.7" xml:space="preserve">
<g>
	<g>
		<g>
			<path fill="#000100" d="M297.7,62.2c2.7-1.7,6-6.1,3.8-9.3c-1.1,1.6-3.6,2.2-5.3,2.8c-1.8,0.6-3.7,1.9-5.5,2.3
				c0-1.4-0.2-3.1-1.5-3.9c-2.2,1.7-1.5,5-0.7,7.2c-3-1.4-5.1-5.5-5.4-8.6c-0.3-3.3,2.5-5.7,4.2-8.3c3.7-5.5,15.2-6.4,19.2-6.7
				c6.2-3.1,8.9-5.1,14.3-6.9c5.7-1.9,9-0.8,15-0.8c2.7,0,5.2,0.1,7.7,0.8c2.9,0.9,6,2.6,8.6,4.2c2.1,1.4,3.5,3,6.1,1.5
				c2.8-1.6,3.3-5.4,3.1-8.5c-0.5-5.7-4.6-9.3-6.6-14.3c-1.3-3.1-1.3-7.3,0.2-10.3c0.7-1.4,2.1-3.1,3.7-3.3c2.1-0.3,3,1.8,4.8,2.4
				c1.4,0.5,5.8,1.3,5.7,1.8c-0.1,0.4-4,1.8-5,1.7c-2.5-0.3-4.5,1.9-4.4,4.8c0.2,3.8,2.8,7.2,4.9,10.1c4.4,6.7,3.1,13.7-1.3,19.9
				c-1.4,1.8-3.1,3.8-4.1,5.8c-0.8,1.7-0.3,3-0.3,4.8c-0.1,1.4-0.3,2.6-0.8,3.9c-1,2.6-3.2,4.6-5.4,6.2c-4.7,3.4-9.8,2-15,1.5
				c-2.7-0.3-5.5-0.6-8.3-0.7c-3.1,0-5.9,0.8-8.8,1.6c-2.5,0.7-5,0.6-7.4,1.7c-2.2,1-3.7,3.4-4.7,5.5c-0.5,1.1-1.3,2.2-1.6,3.4
				c-0.4,1.3-0.4,2.7-0.7,4.1c-0.5,2.6-1,5.3-1.5,7.8c-0.2,1.1,0,2.8-0.5,3.7c-0.5,1-2,1.5-2.9,2c-2,1.2-3.9,3-6.1,3.8
				c-1,0.4-2.1,0.5-3,1c1.7-1.5,0.8-4.4,3.1-5.4c-1.1-3.5,3-2.9,4.2-4.4c1.4-1.6,1.9-5.4,2.5-7.5c1-3.1,1.3-6.3,1.3-9.5
				c0-1.6-0.3-3.1-0.2-4.7c0.1-1.6,0.1-1.6,1.6-2.1c2.1-0.8,6.1-1.7,7.5-3.7c-2.2,0.8-4.7,0.5-7,1.1c-2,0.6-4.8,2.6-7,1.3
				 M336.4,66.6c2.5,3.4,0.7,7.4,0.4,7.9c-0.6,0.9-1.3,1.9,3.5,5c5.9,3.8,11.9,6.4,16.8,11.6c1,1,2.9,2.1,3.6,2.8
				c1.1,1.6,0.5,2.9,2.4,3.9c1,0.4,1.9,0.7,2.6-0.3c1.1,2.1,6.3,0.6,8.1,1.2c0-0.7-0.5-1.6-0.8-2.1c-1-1-4.8-1-6-2
				c-1.6-1.1-2.6-2.8-3.9-4.1c-2.6-2.9-6.2-4.6-9.3-7c-4-3.1-9-4.6-10.9-8.6c-0.9-2.1-0.1-5.9,0.1-8.7c-1.6,0-4.8-0.4-6.4-1
				L336.4,66.6z"/>
		</g>
	</g>
	<g>
		<g>
			<path fill="#000100" d="M0,57.3V22.1h11.9c4.8,0,8.6,0.7,11.4,2.2c2.8,1.4,5,3.6,6.7,6.4c1.6,2.8,2.5,5.8,2.5,9.1
				c0,2.4-0.5,4.6-1.4,6.8c-0.9,2.2-2.2,4.1-3.9,5.7c-1.7,1.7-3.7,3-6,3.8c-1.3,0.5-2.5,0.9-3.7,1.1c-1.1,0.2-3.2,0.3-6.4,0.3H0z
				 M11.4,26.6H5.1v26.2h6.5c2.5,0,4.5-0.2,5.9-0.5c1.4-0.3,2.6-0.8,3.5-1.3c0.9-0.5,1.8-1.2,2.6-2c2.5-2.5,3.7-5.7,3.7-9.6
				c0-3.8-1.3-6.9-3.8-9.3c-0.9-0.9-2-1.6-3.2-2.2c-1.2-0.6-2.4-1-3.5-1.1C15.5,26.7,13.8,26.6,11.4,26.6z"/>
			<path fill="#000100" d="M56.6,46.1H40.3c0.1,2.2,0.9,4,2.2,5.3c1.4,1.3,3.1,2,5.3,2c3,0,5.8-0.9,8.4-2.8v4.5
				c-1.4,0.9-2.8,1.6-4.2,2c-1.4,0.4-3,0.6-4.9,0.6c-2.6,0-4.6-0.5-6.2-1.6c-1.6-1.1-2.9-2.5-3.8-4.3c-0.9-1.8-1.4-3.9-1.4-6.2
				c0-3.5,1-6.4,3-8.6c2-2.2,4.6-3.3,7.8-3.3c3.1,0,5.5,1.1,7.4,3.2c1.8,2.2,2.8,5,2.8,8.7V46.1z M40.4,43.4h11.7
				c-0.1-1.8-0.7-3.3-1.6-4.2c-1-1-2.3-1.5-3.9-1.5c-1.6,0-3,0.5-4,1.5C41.4,40.1,40.7,41.6,40.4,43.4z"/>
			<path fill="#000100" d="M60.8,22.1h4.6v35.3h-4.6V22.1z"/>
			<path fill="#000100" d="M73.1,24.4c0.8,0,1.4,0.3,1.9,0.8c0.5,0.5,0.8,1.2,0.8,1.9c0,0.7-0.3,1.4-0.8,1.9
				c-0.5,0.5-1.2,0.8-1.9,0.8c-0.7,0-1.3-0.3-1.9-0.8c-0.5-0.5-0.8-1.2-0.8-1.9c0-0.7,0.3-1.3,0.8-1.9
				C71.8,24.6,72.4,24.4,73.1,24.4z M70.9,34.1h4.6v23.2h-4.6V34.1z"/>
			<path fill="#000100" d="M95.2,34.1h5L89.9,57.8h-1.6L77.9,34.1h5l6.3,14.3L95.2,34.1z"/>
			<path fill="#000100" d="M121.3,46.1H105c0.1,2.2,0.9,4,2.2,5.3c1.4,1.3,3.1,2,5.3,2c3,0,5.8-0.9,8.4-2.8v4.5
				c-1.4,0.9-2.8,1.6-4.2,2c-1.4,0.4-3,0.6-4.9,0.6c-2.6,0-4.6-0.5-6.2-1.6c-1.6-1.1-2.9-2.5-3.8-4.3c-0.9-1.8-1.4-3.9-1.4-6.2
				c0-3.5,1-6.4,3-8.6c2-2.2,4.6-3.3,7.8-3.3c3.1,0,5.5,1.1,7.4,3.2c1.8,2.2,2.8,5,2.8,8.7V46.1z M105.1,43.4h11.7
				c-0.1-1.8-0.7-3.3-1.6-4.2c-1-1-2.3-1.5-3.9-1.5c-1.6,0-3,0.5-4.1,1.5C106.1,40.1,105.4,41.6,105.1,43.4z"/>
			<path fill="#000100" d="M130.2,34.1v5.3l0.3-0.4c2.2-3.6,4.4-5.4,6.7-5.4c1.7,0,3.5,0.9,5.4,2.6l-2.4,4c-1.6-1.5-3.1-2.3-4.4-2.3
				c-1.5,0-2.8,0.7-3.9,2.1c-1.1,1.4-1.6,3.1-1.6,5v12.1h-4.6V34.1H130.2z"/>
			<path fill="#000100" d="M160.4,34.1h5.2L149,69.2h-5.1l7.9-16.8l-9-18.2h5.2l6.3,13.1L160.4,34.1z"/>
			<path fill="#000100" d="M210.7,24.6v3c-4.3-2.3-8.5-3.4-12.6-3.4c-4.4,0-8,1.5-11,4.5c-2.9,3-4.4,6.7-4.4,11.2
				c0,4.5,1.5,8.2,4.4,11.1c3,2.9,6.7,4.4,11.3,4.4c3.8,0,8-1.2,12.6-3.6v2.8c-4.2,2.2-8.3,3.3-12.5,3.3c-5.4,0-9.8-1.7-13.4-5.2
				c-3.6-3.4-5.4-7.7-5.4-12.9c0-5.2,1.8-9.5,5.5-13c3.7-3.5,8-5.2,13.1-5.2C202.3,21.6,206.4,22.6,210.7,24.6z"/>
			<path fill="#000100" d="M217.1,22.1v35.3h-2.5V22.1H217.1z"/>
			<path fill="#000100" d="M239.2,57.4v-3.8h-0.1c-1.1,1.5-2.2,2.7-3.3,3.3c-1.1,0.7-2.6,1-4.3,1c-2.5,0-4.6-0.8-6.2-2.4
				c-1.6-1.6-2.4-3.9-2.4-6.9V34.1h2.5v14.3c0,2.2,0.6,3.8,1.8,5.1c1.2,1.2,2.7,1.8,4.6,1.8c1.6,0,3-0.4,4.1-1.1
				c1.1-0.7,2.3-2,3.4-3.8V34.1h2.5v23.2H239.2z"/>
			<path fill="#000100" d="M247.2,56.1v-34h2.5v15.4c2.5-2.5,5.3-3.8,8.4-3.8c3,0,5.5,1.1,7.4,3.2c1.9,2.1,2.9,4.8,2.9,8.2
				c0,3.9-1.2,7-3.5,9.3c-2.4,2.3-5.5,3.5-9.4,3.5C252.8,57.8,250.1,57.2,247.2,56.1z M249.7,40.2v14.1c1.9,0.7,3.8,1.1,5.7,1.1
				c3,0,5.5-1,7.4-2.9c2-1.9,2.9-4.4,2.9-7.3c0-2.7-0.8-5-2.3-6.8c-1.5-1.8-3.4-2.6-5.7-2.6C255,35.7,252.3,37.2,249.7,40.2z"/>
		</g>
	</g>
</g>
</svg>
