<svg width="140" height="140" viewBox="0 0 140 140" fill="none" xmlns="http://www.w3.org/2000/svg">
<rect width="140" height="140" rx="30" fill="white"/>
<g clip-path="url(#clip0_752_3428)">
<path d="M90.22 65.1448C89.8717 65.0918 89.586 65.0552 89.303 65.0039C88.9817 64.9456 88.6648 64.8352 88.3426 64.8169C87.3481 64.7604 86.3502 64.6917 85.3558 64.7178C84.7045 64.7343 84.0505 64.8795 83.4088 65.0161C82.6808 65.1709 81.9337 65.3049 81.251 65.5841C80.1834 66.0207 79.1437 66.5365 78.1275 67.0844C76.7795 67.8107 75.4838 68.6352 74.1289 69.3458C73.3896 69.7337 72.592 70.0381 71.7882 70.2669C70.7172 70.5713 69.593 70.6348 68.4932 70.5026C66.9772 70.32 65.5561 69.7877 64.2316 69.0283C63.1057 68.383 62.0164 67.6715 60.8748 67.0557C59.9614 66.5625 58.9991 66.1555 58.0474 65.7371C57.538 65.5127 57.0112 65.3162 56.4765 65.1622C56.0307 65.0335 55.5639 64.9726 55.1033 64.9048C54.5434 64.8221 53.9809 64.736 53.4166 64.7021C52.8619 64.6682 52.2994 64.6604 51.7464 64.7099C51.0855 64.77 50.4307 64.903 49.7733 65.0048C49.4676 65.0518 49.1611 65.0979 48.8555 65.144C48.845 65.1231 48.8337 65.1022 48.8232 65.0813C48.9321 65.0048 49.0435 64.9317 49.1498 64.8517C49.8203 64.3516 50.4638 63.8097 51.1674 63.3609C51.7203 63.0078 52.3368 62.746 52.9438 62.4868C53.3652 62.3068 53.8145 62.1833 54.2595 62.0667C54.5495 61.991 54.8534 61.9432 55.1529 61.9354C55.8957 61.9171 56.6393 61.9067 57.3812 61.9362C57.7792 61.9528 58.1745 62.0511 58.5681 62.1267C58.9434 62.198 59.3205 62.272 59.6888 62.3737C60.2391 62.5259 60.7886 62.6877 61.3285 62.873C61.9964 63.1017 62.6564 63.354 63.3165 63.6045C63.8398 63.8036 64.3535 64.0307 64.8804 64.2194C65.2905 64.3664 65.7137 64.4786 66.1317 64.6012C66.4878 64.7056 66.8457 64.8091 67.2053 64.9004C67.4169 64.9543 67.6338 65.0109 67.8506 65.0231C68.643 65.07 69.4389 65.1527 70.2287 65.1179C70.9088 65.0883 71.5984 64.977 72.2541 64.7943C73.2041 64.529 74.1289 64.1733 75.0606 63.8445C75.9227 63.541 76.776 63.2148 77.639 62.9139C78.2825 62.6886 78.9269 62.4633 79.5834 62.2824C80.0293 62.1589 80.4995 62.1259 80.954 62.0293C81.9075 61.8267 82.8724 61.8988 83.8293 61.9423C84.3222 61.9641 84.8177 62.0998 85.2949 62.2407C85.8138 62.3937 86.3311 62.5764 86.817 62.8121C87.3952 63.093 87.9577 63.4166 88.4941 63.7715C89.0375 64.1315 89.5408 64.5516 90.0597 64.9483C90.1068 64.9839 90.1372 65.0413 90.2208 65.1448H90.22Z" fill="#088844"/>
<path d="M15.5239 79.9414C15.4629 80.3432 15.4159 80.6572 15.3689 80.9712C15.3018 81.4139 15.2339 81.8557 15.1695 82.2984C15.1259 82.5968 15.0841 82.8951 15.0493 83.1952C15.0023 83.5953 14.9735 83.998 14.9169 84.3963C14.8708 84.7251 14.7994 85.0495 14.7341 85.3748C14.5982 86.0524 14.4868 86.7325 14.5399 87.4266C14.5608 87.7049 14.7759 87.8606 15.0075 87.9441C15.2234 88.0224 15.1721 88.1781 15.1486 88.3033C15.1372 88.3625 14.9936 88.4355 14.91 88.4364C13.9547 88.446 12.9995 88.4425 12.0408 88.4425C11.9641 88.2407 12.0016 88.0954 12.1479 87.9606C12.6381 87.5075 12.8036 86.9091 12.895 86.2759C12.9481 85.908 13.0282 85.5444 13.0892 85.1774C13.1345 84.9077 13.1736 84.6364 13.2059 84.365C13.2538 83.9649 13.286 83.5622 13.34 83.163C13.3931 82.7751 13.4671 82.3898 13.5289 82.0036C13.5716 81.7322 13.6125 81.4608 13.6465 81.1886C13.6952 80.7972 13.7309 80.4041 13.7858 80.0127C13.8415 79.6152 13.8938 79.2151 13.9835 78.8237C14.0697 78.4471 13.9382 78.0009 13.6343 77.7939C13.4897 77.6953 13.4328 77.5489 13.4636 77.3547H16.6994C16.9833 78.034 17.241 78.6758 17.5179 79.3099C17.9089 80.2032 18.3156 81.0903 18.7144 81.981C19.1271 82.9038 19.5373 83.8275 19.95 84.7512C19.9605 84.7738 19.9805 84.7929 20.0249 84.8521C20.1512 84.5859 20.2705 84.3476 20.3776 84.1041C20.5726 83.6622 20.7677 83.2195 20.9514 82.7733C21.3128 81.8966 21.6672 81.0155 22.026 80.1371C22.275 79.5265 22.5441 78.9229 22.7713 78.3044C22.8802 78.0096 22.9133 77.686 22.9864 77.3521H26.278C26.278 77.4764 26.278 77.5921 26.278 77.7078C25.8347 77.84 25.6684 78.1601 25.7738 78.6132C25.8373 78.8889 25.8617 79.1742 25.8948 79.456C25.9401 79.8387 25.9749 80.2232 26.0185 80.6059C26.0585 80.952 26.0516 81.3156 26.1613 81.6391C26.3319 82.1453 26.3528 82.6637 26.4216 83.1812C26.5052 83.8136 26.6341 84.4407 26.729 85.0713C26.7848 85.4426 26.8057 85.8201 26.8553 86.1924C26.9154 86.6412 26.931 87.1056 27.1888 87.5014C27.2854 87.651 27.396 87.8206 27.5441 87.9015C27.7861 88.0337 27.7618 88.2059 27.7243 88.426H24.0662C24.0226 88.1894 24.0113 88.0267 24.3109 87.938C24.5573 87.865 24.6923 87.6379 24.7167 87.3457C24.7802 86.5742 24.6217 85.8288 24.5024 85.0773C24.4955 85.0321 24.4929 84.9851 24.4885 84.9399C24.4075 84.1276 24.3318 83.3143 24.2438 82.5028C24.1811 81.9227 24.1071 81.3426 24.027 80.765C23.9965 80.5441 23.9338 80.3284 23.8859 80.1101L23.8015 80.084C22.6242 82.9742 21.4469 85.8645 20.2496 88.8017C19.6235 88.3164 19.0766 87.8128 18.7562 87.123C18.1501 85.8184 17.5615 84.505 16.9833 83.1882C16.5505 82.2036 16.1456 81.2069 15.7241 80.2171C15.6911 80.1388 15.624 80.0744 15.5265 79.9414H15.5239Z" fill="url(#paint0_linear_752_3428)"/>
<path d="M55.9125 60.2576C56.3757 59.9445 56.8155 59.5835 57.3101 59.3313C57.8561 59.053 58.4395 58.8268 59.0299 58.6651C59.8493 58.4407 60.707 58.4746 61.5412 58.5546C62.2613 58.6233 62.9745 58.8112 63.6789 58.9903C64.1979 59.1217 64.696 59.3322 65.208 59.4931C65.6399 59.6279 66.0779 59.741 66.5133 59.8662C66.8817 59.9723 67.2474 60.088 67.6183 60.1854C67.8465 60.2454 68.0799 60.3133 68.3124 60.3176C69.1074 60.3341 69.9033 60.3385 70.6983 60.315C70.9752 60.3072 71.2521 60.2141 71.5246 60.1463C71.9322 60.0445 72.3388 59.9384 72.742 59.8184C73.2897 59.6557 73.8339 59.4792 74.3791 59.3087C74.8205 59.1704 75.2577 59.0138 75.7052 58.8973C76.1189 58.7903 76.5403 58.6903 76.9644 58.6503C77.6601 58.5842 78.3602 58.5476 79.0595 58.5389C79.6586 58.5311 80.2385 58.6972 80.7845 58.9286C81.3331 59.1617 81.8616 59.4478 82.3797 59.7444C82.6305 59.8879 82.8378 60.1063 83.065 60.2907C83.0598 60.3159 83.0546 60.3411 83.0494 60.3655C82.6802 60.3368 82.3118 60.3089 81.9426 60.2811C81.8146 60.2715 81.6849 60.248 81.5577 60.2576C81.3122 60.275 81.0649 60.2967 80.8228 60.3411C80.2777 60.4403 79.7265 60.522 79.1944 60.6716C78.5161 60.8621 77.8387 61.0726 77.1908 61.3448C76.2573 61.7362 75.3587 62.2094 74.4304 62.6121C73.7077 62.9252 72.9684 63.2061 72.223 63.461C70.9125 63.9089 69.5471 63.8637 68.1992 63.7645C67.533 63.7149 66.8799 63.4557 66.2268 63.2696C64.9015 62.8913 63.7364 62.1476 62.4808 61.6101C61.8155 61.3257 61.1459 61.0439 60.4597 60.8195C59.9346 60.6481 59.3825 60.5533 58.8374 60.4516C58.3716 60.3646 57.9013 60.2828 57.4294 60.2611C57.0288 60.2428 56.6248 60.3141 56.2216 60.3428C56.1328 60.3489 56.044 60.3437 55.9552 60.3437C55.9404 60.315 55.9264 60.2863 55.9116 60.2585L55.9125 60.2576Z" fill="#239246"/>
<path d="M102.641 77.3512H106.517C106.589 77.5538 106.522 77.673 106.35 77.766C105.834 78.0452 105.586 78.4593 105.593 79.0707C105.614 80.952 105.599 82.8342 105.6 84.7164C105.6 84.8294 105.614 84.9425 105.622 85.0556L105.704 85.086C106.022 84.6833 106.349 84.2876 106.657 83.8779C107.202 83.1534 107.734 82.4193 108.274 81.6922C108.79 80.999 109.306 80.3066 109.828 79.6178C110.3 78.9942 110.826 78.4045 111.237 77.7443C111.478 77.3564 111.749 77.3164 112.131 77.3294C112.761 77.3512 113.393 77.3312 114.025 77.3399C114.119 77.3416 114.269 77.3807 114.294 77.4425C114.344 77.566 114.319 77.6852 114.158 77.7817C113.809 77.9922 113.623 78.3157 113.623 78.7393C113.626 81.5017 113.627 84.2641 113.622 87.0265C113.622 87.4118 113.791 87.7014 114.1 87.8919C114.32 88.0276 114.348 88.1841 114.282 88.4199H110.495C110.446 88.2042 110.429 88.0459 110.672 87.8936C111.116 87.6144 111.377 87.2117 111.381 86.649C111.398 84.6433 111.434 82.6376 111.462 80.6311C111.462 80.5789 111.443 80.5267 111.416 80.3962C111.259 80.558 111.129 80.6702 111.028 80.8033C110.592 81.3756 110.168 81.9557 109.735 82.5289C109.091 83.383 108.443 84.2337 107.797 85.086C107.302 85.7384 106.833 86.4124 106.305 87.0369C105.928 87.4831 105.463 87.8536 105.054 88.2746C104.7 88.639 104.227 88.7704 103.785 88.9652C103.716 88.9965 103.627 88.9852 103.51 88.9983C103.51 88.8513 103.51 88.733 103.51 88.6156C103.51 85.6583 103.514 82.7011 103.505 79.7439C103.504 79.3412 103.458 78.935 103.39 78.5384C103.332 78.1992 103.068 77.98 102.805 77.7808C102.614 77.6365 102.61 77.6434 102.641 77.3494V77.3512Z" fill="url(#paint1_linear_752_3428)"/>
<path d="M79.2164 88.7373C78.4971 88.6634 77.9154 88.6651 77.3668 88.5295C76.8322 88.3972 76.321 88.1468 75.8186 87.9093C75.0967 87.5684 74.4706 87.0804 73.9603 86.4707C73.4823 85.8993 73.1349 85.2539 72.8971 84.5346C72.6098 83.6666 72.6272 82.7838 72.7169 81.9122C72.7857 81.2451 73.0626 80.6085 73.4222 80.0222C74.1641 78.8115 75.2378 77.9931 76.5352 77.4834C77.076 77.2712 77.6829 77.2242 78.262 77.1137C78.6059 77.0485 78.9569 76.9502 79.2991 76.9676C79.7371 76.9894 80.176 77.0876 80.6026 77.1972C81.1181 77.3303 81.6267 77.4947 82.1274 77.6756C82.3808 77.7669 82.6167 77.9122 82.8501 78.0522C83.5737 78.4854 84.158 79.0646 84.6256 79.7648C84.987 80.3058 85.2299 80.8894 85.3849 81.5243C85.5591 82.2402 85.5417 82.9638 85.4616 83.6718C85.3745 84.4468 85.0984 85.1982 84.6169 85.8271C84.2259 86.3376 83.8071 86.8525 83.3064 87.2465C82.8179 87.6319 82.2136 87.8719 81.6528 88.1633C81.436 88.2764 81.2078 88.392 80.971 88.4399C80.3449 88.566 79.7118 88.6564 79.2155 88.7382L79.2164 88.7373ZM79.1772 87.1291C79.6126 87.0682 80.0619 87.0561 80.4798 86.9352C81.1791 86.7334 81.7756 86.3411 82.2458 85.7723C82.7639 85.1452 83.0722 84.4363 83.1209 83.6187C83.1288 83.4917 83.208 83.3708 83.2254 83.243C83.2385 83.1438 83.2141 83.0369 83.1941 82.936C83.1784 82.8586 83.1192 82.7829 83.1218 82.709C83.1479 82.0418 82.9424 81.4304 82.6577 80.8459C81.934 79.3621 80.6993 78.6271 79.0823 78.5732C78.5702 78.5558 78.0495 78.7541 77.5358 78.8681C76.7364 79.0455 76.166 79.5569 75.6967 80.1875C75.391 80.598 75.1699 81.0581 75.0958 81.5756C75.0375 81.981 74.9295 82.3845 74.9269 82.7898C74.9252 83.1282 75.0523 83.4665 75.1072 83.8075C75.2265 84.552 75.5991 85.1748 76.0755 85.7297C76.8835 86.6699 77.9224 87.1239 79.1772 87.13V87.1291Z" fill="url(#paint2_linear_752_3428)"/>
<path d="M60.7095 88.4268H57.0592C57.0105 88.1981 57.0131 88.0467 57.2726 87.9328C57.4406 87.8589 57.5835 87.6501 57.6618 87.4692C57.7533 87.257 57.7994 87.0091 57.8003 86.7769C57.8099 84.1719 57.8142 81.5661 57.7959 78.9611C57.7942 78.6541 57.6688 78.3418 57.5608 78.0453C57.5199 77.9331 57.3832 77.8191 57.2656 77.78C57.0436 77.706 57.0018 77.5764 57.0549 77.3573H60.7043C60.7609 77.5669 60.7479 77.7104 60.4779 77.7765C60.3473 77.8087 60.1949 77.9365 60.1409 78.06C60.0295 78.3149 59.9215 78.5932 59.9119 78.8663C59.8823 79.6996 59.8988 80.5345 59.8988 81.3695C59.8988 81.4234 59.9084 81.4774 59.9154 81.5513H65.6547C65.6599 81.4521 65.6695 81.3547 65.6695 81.2564C65.6704 80.478 65.673 79.6987 65.6695 78.9202C65.6669 78.4253 65.5763 77.9765 65.0608 77.7356C65.006 77.7104 64.992 77.5582 64.9955 77.4669C64.9972 77.4225 65.0843 77.3442 65.134 77.3442C66.2747 77.3373 67.4145 77.339 68.5709 77.339C68.5988 77.553 68.6467 77.6973 68.3689 77.8017C68.1886 77.8696 68.0302 78.114 67.9561 78.3149C67.8604 78.5749 67.8247 78.8689 67.8229 79.149C67.8133 81.6157 67.8081 84.0815 67.8281 86.5481C67.8308 86.9108 67.9588 87.277 68.0633 87.6319C68.0972 87.7484 68.2261 87.8919 68.3375 87.9197C68.6423 87.9972 68.6075 88.1902 68.5735 88.4225C68.4943 88.4303 68.4229 88.4433 68.3515 88.4433C67.3205 88.4451 66.2895 88.4468 65.2585 88.4399C65.1679 88.4399 65.0103 88.3807 65.0007 88.3285C64.9781 88.1955 64.918 88.0485 65.1418 87.9467C65.5049 87.7815 65.6503 87.4135 65.6573 87.0439C65.6799 85.8393 65.6643 84.6338 65.6704 83.4283C65.6721 83.1778 65.518 83.1734 65.3377 83.1734C64.1021 83.1752 62.8673 83.1734 61.6317 83.1734C61.158 83.1734 60.6843 83.1795 60.2106 83.1708C59.9929 83.1665 59.8901 83.2308 59.8919 83.4709C59.9015 84.6016 59.884 85.7331 59.9093 86.8638C59.9154 87.1352 60.0312 87.4135 60.1392 87.6701C60.1888 87.7884 60.3316 87.9206 60.4527 87.9458C60.7583 88.0085 60.7505 88.1876 60.7061 88.4294L60.7095 88.4268Z" fill="url(#paint3_linear_752_3428)"/>
<path d="M126.975 88.4312H123.384C123.333 88.1981 123.336 88.0494 123.612 87.9354C123.962 87.7919 124.109 87.424 124.116 87.0822C124.144 85.7297 124.128 84.3754 124.127 83.0221C124.127 82.9986 124.108 82.9751 124.077 82.9047C123.973 83.0177 123.876 83.1047 123.801 83.2082C123.286 83.9162 122.793 84.6399 122.26 85.3339C121.678 86.0932 121.068 86.8317 120.452 87.5649C120.182 87.8867 119.85 88.1433 119.438 88.2746C119.165 88.3616 118.895 88.4547 118.619 88.5286C118.515 88.5564 118.398 88.5495 118.288 88.5434C117.783 88.5129 117.278 88.4808 116.774 88.4373C116.693 88.4303 116.558 88.3651 116.553 88.3146C116.539 88.1894 116.473 88.0467 116.684 87.9528C117.851 87.4318 118.731 86.5612 119.52 85.5809C120.108 84.8503 120.715 84.1354 121.321 83.4196C121.553 83.1456 121.554 83.1717 121.239 83.0238C120.337 82.602 119.56 82.0027 119.213 81.0555C118.795 79.9135 119.049 78.7402 120.212 77.9705C120.652 77.68 121.125 77.486 121.654 77.4373C122.047 77.4016 122.439 77.3434 122.831 77.3399C124.104 77.3277 125.376 77.3355 126.648 77.3347C126.757 77.3347 126.866 77.3347 126.976 77.3347C127.018 77.5608 127.027 77.6887 126.779 77.7922C126.597 77.8678 126.446 78.1001 126.36 78.2966C126.267 78.508 126.233 78.7593 126.233 78.9942C126.224 81.5713 126.22 84.1484 126.237 86.7256C126.239 87.0335 126.361 87.3466 126.464 87.6458C126.504 87.7615 126.626 87.8711 126.739 87.9363C127.015 88.0955 127.022 88.0841 126.974 88.4312H126.975ZM124.136 80.6215C124.136 80.2136 124.136 79.8065 124.136 79.3986C124.136 78.9904 123.936 78.775 123.536 78.7524C123.508 78.7506 123.477 78.7576 123.453 78.748C122.998 78.5628 122.568 78.7228 122.155 78.8785C121.634 79.0742 121.25 79.4552 121.166 80.0127C121.032 80.8964 121.384 81.48 122.163 81.8775C122.678 82.141 123.266 82.2636 123.826 82.4385C124.04 82.5054 124.147 82.4289 124.14 82.1784C124.124 81.66 124.136 81.1408 124.136 80.6224V80.6215Z" fill="url(#paint4_linear_752_3428)"/>
<path d="M30.583 88.4259C30.5064 88.1676 30.5647 88.0032 30.7981 87.8902C31.3693 87.6136 31.6375 87.0804 31.8814 86.542C32.3115 85.5922 32.733 84.6381 33.137 83.677C33.5707 82.6437 33.9773 81.5991 34.4014 80.5615C34.6339 79.9927 34.8873 79.4317 35.1154 78.862C35.199 78.6541 35.2426 78.4297 35.2948 78.2105C35.3444 78.0009 35.2199 77.8426 35.0527 77.7965C34.7863 77.7234 34.8185 77.566 34.8594 77.3599C34.9317 77.352 35.0031 77.3373 35.0745 77.3373C35.9287 77.3355 36.783 77.3381 37.6372 77.3338C37.78 77.3338 37.8575 77.3616 37.9202 77.5164C38.1919 78.1861 38.4879 78.8463 38.7744 79.5108C39.1393 80.3571 39.5111 81.2008 39.8646 82.0514C40.2217 82.9116 40.5465 83.7849 40.9113 84.6416C41.2588 85.4566 41.6306 86.2611 42.0085 87.0621C42.1957 87.4596 42.5266 87.7293 42.8915 87.9693C42.9751 88.0241 43.0012 88.1876 43.0195 88.3059C43.0256 88.3424 42.9185 88.4364 42.8627 88.4364C41.675 88.4442 40.4881 88.4425 39.2891 88.4425C39.229 88.2128 39.2002 88.045 39.4719 87.9189C39.8812 87.7293 39.9003 87.5492 39.6722 86.9978C39.343 86.2046 39.0156 85.4105 38.6995 84.6129C38.6342 84.4485 38.5445 84.3806 38.3747 84.3815C37.1861 84.3841 35.9984 84.3893 34.8098 84.3789C34.4745 84.3763 34.4702 84.6494 34.3918 84.8381C34.1306 85.4713 33.8955 86.1158 33.6525 86.7569C33.5977 86.9021 33.5411 87.0474 33.4993 87.1961C33.4026 87.544 33.4801 87.7762 33.8154 87.911C34.0975 88.025 34.0557 88.2015 34.0226 88.4277H30.5848L30.583 88.4259ZM36.5966 79.5473C36.5635 79.5412 36.5313 79.5352 36.4982 79.5299C36.0489 80.6076 35.5656 81.6713 35.1886 82.7916C35.2713 82.8185 35.3053 82.8394 35.3392 82.8394C36.136 82.842 36.9327 82.8446 37.7295 82.8412C37.982 82.8403 37.9298 82.682 37.8645 82.535C37.7138 82.194 37.551 81.8583 37.4064 81.5148C37.1313 80.8616 36.8657 80.204 36.5957 79.5473H36.5966Z" fill="url(#paint5_linear_752_3428)"/>
<path d="M87.3403 86.9926C87.7339 86.9282 88.1101 86.9134 88.4532 86.7995C89.0201 86.6116 89.3588 86.1715 89.5756 85.6244C89.9666 84.6381 90.3741 83.6579 90.7677 82.6724C91.2231 81.5313 91.6716 80.3875 92.1218 79.2447C92.2315 78.9672 92.3351 78.688 92.4431 78.4097C92.5397 78.1601 92.4187 77.8643 92.1784 77.7687C91.9943 77.6956 91.9209 77.5564 91.9581 77.3512H95.0389C95.1399 78.3549 95.5648 79.2412 95.9175 80.151C96.2249 80.9433 96.5349 81.7339 96.8396 82.5272C97.1731 83.3969 97.5006 84.2693 97.8314 85.14C98.0605 85.7401 98.2921 86.3394 98.522 86.9404C98.6735 87.337 98.9095 87.6788 99.2343 87.9484C99.3919 88.0789 99.4467 88.212 99.3893 88.4216H95.8948C95.8652 88.2059 95.826 88.0354 96.0934 87.918C96.4312 87.7701 96.4574 87.5057 96.2867 87.0587C95.9906 86.2802 95.7137 85.4939 95.4237 84.7138C95.1843 84.071 94.9352 83.4317 94.694 82.7898C94.3962 82.0001 94.1045 81.2077 93.8024 80.4197C93.7475 80.2753 93.6535 80.1466 93.5786 80.0101C93.5046 80.1336 93.4088 80.2484 93.36 80.3814C93.0474 81.2312 92.7548 82.0888 92.437 82.936C92.1644 83.6631 91.8675 84.3815 91.5801 85.1034C91.352 85.674 91.1526 86.2593 90.8835 86.8108C90.5996 87.3935 90.1913 87.8841 89.6592 88.285C89.27 88.5782 88.859 88.6669 88.3966 88.6782C88.2085 88.6825 88.0996 88.646 88.0187 88.459C87.8062 87.965 87.5685 87.4822 87.3403 86.9934V86.9926Z" fill="url(#paint6_linear_752_3428)"/>
<path d="M46.4691 88.4407C46.4125 88.1781 46.4447 88.0354 46.6989 87.9258C46.8661 87.8545 47.0098 87.6414 47.0838 87.4596C47.1744 87.237 47.2162 86.9795 47.2171 86.7369C47.2266 84.1684 47.231 81.6 47.2136 79.0316C47.211 78.715 47.0908 78.3932 46.9846 78.0879C46.9428 77.9661 46.8069 77.8217 46.6876 77.7913C46.4325 77.7278 46.4133 77.586 46.4717 77.3346H46.7808C48.6295 77.3346 50.4772 77.339 52.3259 77.3294C52.5863 77.3286 52.8466 77.2616 53.1331 77.2224V79.5604C53.0077 79.516 52.8832 79.5056 52.8083 79.4395C52.3546 79.0385 51.8296 78.855 51.227 78.8663C50.7533 78.875 50.2796 78.8663 49.8059 78.8767C49.428 78.8846 49.3714 78.9481 49.3714 79.316C49.3714 81.8287 49.3644 84.3415 49.3748 86.8543C49.3766 87.3187 49.4741 87.7606 49.9739 87.9902C50.0358 88.018 50.0419 88.2007 50.0419 88.312C50.0419 88.3555 49.9539 88.4355 49.9051 88.4364C48.7644 88.4433 47.6237 88.4416 46.4699 88.4416L46.4691 88.4407Z" fill="url(#paint7_linear_752_3428)"/>
<path d="M72.3135 52C72.4214 52.0931 72.5425 52.1765 72.6365 52.2818C73.5787 53.3429 73.7772 54.6049 73.6701 55.9679C73.5482 57.5161 71.6299 59.2747 69.9763 59.3991C67.5616 59.5809 65.8567 57.9022 65.4587 56.4019C65.1539 55.2529 65.2384 54.1066 65.8279 53.0515C66.0256 52.6975 66.3513 52.414 66.6473 52.1191C65.8314 54.2257 66.0543 56.0235 68.2609 57.062C69.7046 57.7413 71.0247 57.2873 71.9826 56.2358C73.1276 54.9789 73.1276 53.5082 72.3143 51.9991L72.3135 52Z" fill="#3F9A46"/>
<path d="M69.5217 56.2045C70.684 56.2045 71.6263 55.2633 71.6263 54.1022C71.6263 52.9412 70.684 52 69.5217 52C68.3593 52 67.417 52.9412 67.417 54.1022C67.417 55.2633 68.3593 56.2045 69.5217 56.2045Z" fill="#ED9422"/>
</g>
<defs>
<linearGradient id="paint0_linear_752_3428" x1="19.875" y1="77.3521" x2="19.875" y2="88.8017" gradientUnits="userSpaceOnUse">
<stop stop-color="#18B258"/>
<stop offset="1" stop-color="#116735"/>
</linearGradient>
<linearGradient id="paint1_linear_752_3428" x1="108.472" y1="77.3274" x2="108.472" y2="88.9983" gradientUnits="userSpaceOnUse">
<stop stop-color="#18B258"/>
<stop offset="1" stop-color="#116735"/>
</linearGradient>
<linearGradient id="paint2_linear_752_3428" x1="79.0893" y1="76.9656" x2="79.0893" y2="88.7382" gradientUnits="userSpaceOnUse">
<stop stop-color="#18B258"/>
<stop offset="1" stop-color="#116735"/>
</linearGradient>
<linearGradient id="paint3_linear_752_3428" x1="62.8147" y1="77.3388" x2="62.8147" y2="88.4449" gradientUnits="userSpaceOnUse">
<stop stop-color="#18B258"/>
<stop offset="1" stop-color="#116735"/>
</linearGradient>
<linearGradient id="paint4_linear_752_3428" x1="121.766" y1="77.333" x2="121.766" y2="88.5489" gradientUnits="userSpaceOnUse">
<stop stop-color="#18B258"/>
<stop offset="1" stop-color="#116735"/>
</linearGradient>
<linearGradient id="paint5_linear_752_3428" x1="36.7855" y1="77.3338" x2="36.7855" y2="88.4426" gradientUnits="userSpaceOnUse">
<stop stop-color="#18B258"/>
<stop offset="1" stop-color="#116735"/>
</linearGradient>
<linearGradient id="paint6_linear_752_3428" x1="93.3759" y1="77.3512" x2="93.3759" y2="88.6785" gradientUnits="userSpaceOnUse">
<stop stop-color="#18B258"/>
<stop offset="1" stop-color="#116735"/>
</linearGradient>
<linearGradient id="paint7_linear_752_3428" x1="49.7887" y1="77.2224" x2="49.7887" y2="88.4418" gradientUnits="userSpaceOnUse">
<stop stop-color="#18B258"/>
<stop offset="1" stop-color="#116735"/>
</linearGradient>
<clipPath id="clip0_752_3428">
<rect width="115" height="37" fill="white" transform="translate(12 52)"/>
</clipPath>
</defs>
</svg>
