<svg width="140" height="140" viewBox="0 0 140 140" fill="none" xmlns="http://www.w3.org/2000/svg">
<g clip-path="url(#clip0_822_1092)">
<rect width="140" height="140" rx="30" fill="#F68B00"/>
<path d="M142 0H70V70H142V0Z" fill="#1871CB"/>
<path d="M89.7064 111.803C89.7064 111.588 89.6822 111.37 89.7101 111.159C90.0112 108.821 89.3012 107.162 87.3201 105.518C82.2315 101.295 80.7279 94.352 83.092 88.2026C85.3965 82.2054 91.2675 78.1407 97.8281 78.0032C104.286 77.8675 110.514 82.0679 112.917 88.1824C115.335 94.3355 113.638 101.583 108.475 105.719C106.688 107.153 105.983 108.607 106.193 110.77C106.342 112.312 106.243 113.882 106.216 115.436C106.16 118.392 104.314 120.775 101.489 121.72C100.696 121.986 100.017 122.613 99.2182 122.825C98.4637 123.025 97.5716 123.071 96.8245 122.871C95.9268 122.631 95.1537 121.971 94.2672 121.648C91.5352 120.653 89.8885 118.331 89.7268 115.022C89.6748 113.951 89.7194 112.875 89.7194 111.803C89.7157 111.803 89.712 111.803 89.7082 111.803H89.7064ZM97.8113 107.274C98.9004 107.274 99.997 107.355 101.073 107.237C101.558 107.184 102.086 106.817 102.443 106.449C103.405 105.455 104.166 104.243 105.219 103.371C109.02 100.221 110.622 96.2661 109.665 91.49C108.624 86.2995 104.238 82.4896 99.1978 82.0808C93.7691 81.6407 88.779 84.6677 86.8963 89.5465C84.9412 94.6141 86.5172 100.021 90.8754 103.394C91.6764 104.014 92.6242 104.696 92.9922 105.562C93.652 107.107 94.676 107.476 96.1796 107.287C96.7148 107.219 97.2668 107.276 97.8113 107.274ZM101.768 116.643H94.3508C95.6276 118.48 100.218 118.482 101.768 116.643ZM101.954 112.131C100.822 111.095 94.9028 111.128 93.9066 112.177C96.5829 112.47 99.2647 112.485 101.954 112.131Z" fill="white"/>
<path d="M26 49.112C25.9981 45.6555 27.1499 42.4927 28.5569 39.4137C31.2872 33.4396 34.9176 28.0084 38.8909 22.8003C40.6054 20.5524 43.2295 20.3609 44.8676 22.501C49.9461 29.1333 54.7077 35.9831 57.2217 44.0695C60.4179 54.3498 53.4199 64.5372 42.6312 64.9853C33.08 65.3814 26 57.7115 26 49.112ZM42.115 25.1097C40.5197 27.3762 39.1201 29.2411 37.8528 31.1879C34.7908 35.8939 31.8332 40.6631 30.428 46.1854C28.57 53.4889 34.174 60.8538 41.6193 60.9245C50.0001 61.0044 55.8277 53.5559 53.3938 45.5439C52.4228 42.3496 50.9375 39.2556 49.29 36.3364C47.1636 32.5675 44.6421 29.0217 42.115 25.1097Z" fill="white"/>
<path d="M49.0149 100.354C49.0149 95.7706 48.9728 91.1877 49.0301 86.6048C49.0664 83.5905 51.1141 81.4294 54.1149 81.0456C56.7948 80.7029 59.3181 82.3181 60.1127 84.9728C60.3267 85.6882 60.3477 86.4762 60.3496 87.2326C60.3649 95.0347 60.3878 102.835 60.3324 110.637C60.3228 111.99 60.5884 112.703 62.1585 112.56C63.5567 112.431 64.0094 113.337 63.9999 114.535C63.9884 115.775 63.4001 116.532 62.0496 116.427C60.7698 116.327 59.9045 116.675 59.1347 117.806C57.8129 119.747 55.2209 120.442 53.0319 119.723C50.5525 118.909 49.0511 116.936 49.0282 114.266C48.9881 109.629 49.0168 104.992 49.0187 100.355L49.0149 100.354ZM53.2611 100.26C53.2611 104.732 53.2611 109.203 53.2611 113.674C53.2611 114.682 53.221 115.792 54.6612 115.826C56.1014 115.859 56.1492 114.764 56.1492 113.745C56.1549 104.912 56.153 96.078 56.153 87.2456C56.153 86.2154 56.09 85.092 54.7281 85.079C53.2286 85.0641 53.2573 86.2638 53.2573 87.3388C53.263 91.646 53.2592 95.9532 53.2592 100.26H53.2611Z" fill="white"/>
<path d="M35.997 100.498C35.997 105.019 36.0042 109.543 35.9952 114.064C35.988 117.518 33.8249 119.964 30.7685 120C27.7681 120.033 25.3464 117.563 25.2957 114.21C25.2216 109.308 25.2722 104.403 25.2704 99.4995C25.2704 96.9379 25.2433 94.3781 25.2813 91.8184C25.2976 90.7863 25.1077 90.1175 23.8995 90.2218C22.6806 90.328 22.0548 89.7691 22.0042 88.4278C21.9499 87.0268 22.4183 86.1699 23.838 86.1848C24.9395 86.1978 25.3482 85.6631 25.6991 84.6385C26.6214 81.9483 29.0666 80.5958 31.7451 81.1063C34.2879 81.5925 35.9807 83.7592 35.9916 86.6058C36.0079 91.2372 35.9952 95.8685 35.997 100.5V100.498ZM29.2945 100.418C29.2945 104.831 29.2945 109.245 29.2945 113.658C29.2945 114.672 29.2673 115.782 30.6183 115.81C31.9802 115.838 32.2026 114.761 32.2026 113.651C32.2117 104.824 32.2081 95.9971 32.2063 87.1703C32.2063 86.0823 31.8681 85.0912 30.6943 85.0707C29.4265 85.0483 29.2872 86.1158 29.2909 87.1777C29.3017 91.5911 29.2963 96.0045 29.2945 100.418Z" fill="white"/>
<path d="M37.0116 100.42C37.0116 95.8969 37.0023 91.3719 37.0153 86.8489C37.0245 83.5553 39.0831 81.2193 42.1239 81.0125C45.1202 80.8094 47.6468 83.1045 47.9335 86.3869C48.0482 87.6853 47.9797 89.0005 47.9797 90.3082C47.9816 98.1565 47.9945 106.005 47.9723 113.855C47.9631 116.962 46.5075 118.995 43.8477 119.783C40.5277 120.764 37.0763 118.3 37.0319 114.811C36.9709 110.016 37.0171 105.219 37.0116 100.422V100.42ZM43.8644 100.61C43.8644 96.085 43.8588 91.562 43.8681 87.037C43.8699 86.0013 43.6091 85.0773 42.4235 85.0922C41.2879 85.1071 40.8995 86.0255 40.8976 87.0389C40.8828 95.9788 40.881 104.919 40.8976 113.857C40.8995 114.915 41.2194 115.886 42.5197 115.85C43.7848 115.815 43.8718 114.848 43.8699 113.853C43.8607 109.438 43.8662 105.023 43.8644 100.608V100.61Z" fill="white"/>
<path d="M100.029 50.2002C100.029 51.9331 100.001 53.666 100.038 55.3971C100.068 56.762 99.6119 57.7662 98.1667 57.9807C96.9817 58.1564 95.9886 57.1134 95.9554 55.5265C95.8834 52.0089 95.8594 48.4895 95.9407 44.9719C95.9757 43.4923 95.518 42.9671 94.0082 43.0133C90.8224 43.1113 87.6311 43.0466 84.4416 43.0373C83.9045 43.0373 83.3507 43.0318 82.8302 42.9171C81.7191 42.6693 80.8977 42.0109 81.0103 40.7958C81.1266 39.5438 81.9757 38.9242 83.2455 38.9242C86.8134 38.9242 90.3831 38.8447 93.9473 38.9557C95.5512 39.0056 95.985 38.4508 95.9407 36.9157C95.8428 33.5627 95.865 30.2023 95.9481 26.8493C95.9684 26.0411 96.2138 25.0627 96.7251 24.4968C97.109 24.0696 98.2811 23.844 98.7425 24.1232C99.3535 24.495 99.9441 25.4345 99.9681 26.1502C100.09 29.7732 100.095 33.4037 99.9958 37.0286C99.9552 38.5303 100.404 39 101.914 38.9538C105.315 38.8484 108.724 38.9168 112.13 38.9224C114.108 38.9261 115.007 39.5752 115 40.966C114.993 42.3179 114.051 43.0207 112.087 43.0355C108.628 43.0614 105.168 43.0836 101.709 43.0263C100.474 43.0059 99.9386 43.3629 100.005 44.6833C100.097 46.5198 100.029 48.3637 100.027 50.2039L100.029 50.2002Z" fill="white"/>
<path d="M98.7965 85C101.465 85.2112 103.892 86.505 105.532 89.3101C106.22 90.4891 106.201 91.6558 105.129 92.4903C104.066 93.3187 103.087 92.9722 102.238 91.8977C99.6429 88.6006 97.3145 88.6252 94.7454 91.9408C93.9197 93.007 92.9474 93.3843 91.8584 92.5293C90.7657 91.6722 90.8183 90.5321 91.4465 89.3429C92.7593 86.8598 95.7271 85.0226 98.7965 85Z" fill="white"/>
<path d="M52.9927 49.5898C52.6306 55.145 47.9053 59.8293 42.4449 59.9976C41.2331 60.0342 40.196 59.6573 40.0195 58.2264C39.863 56.9492 40.6545 56.1496 42.152 55.9995C46.1968 55.597 48.5567 53.2676 48.9879 49.2531C49.1462 47.7728 49.985 46.9073 51.164 47.0079C52.3213 47.1067 53.0836 48.1826 52.9927 49.5898Z" fill="white"/>
</g>
<defs>
<clipPath id="clip0_822_1092">
<rect width="140" height="140" rx="30" fill="white"/>
</clipPath>
</defs>
</svg>
